Coordinates
version=1
nRows=23
nColumns=27
inDegrees=yes

Units are S.I. units (second, meters, Newtons, ...)
If the header above contains a line with 'inDegrees', this indicates whether rotational values are in degrees (yes) or radians (no).

endheader
time	pelvis_rotation	pelvis_tilt	pelvis_list	pelvis_tx	pelvis_ty	pelvis_tz	hip_flexion_r	hip_adduction_r	hip_rotation_r	knee_angle_r	knee_rotation_r	knee_adduction_r	knee_angle_r_beta	ankle_angle_r	subtalar_angle_r	mtp_angle_r	hip_flexion_l	hip_adduction_l	hip_rotation_l	knee_angle_l	knee_rotation_l	knee_adduction_l	knee_angle_l_beta	ankle_angle_l	subtalar_angle_l	mtp_angle_l
      4.78500000	      8.38919852	    -22.81062461	      6.01054010	      0.00611203	      0.43455707	     -1.14920511	    127.40050516	    -49.43794960	     36.17361132	    112.64837521	      0.00000000	   -685.22556164	      1.96608504	     25.70965372	      0.00000000	      0.00000000	    115.31102697	    -33.47936050	     18.66610608	    105.90633704	      0.00000000	     -9.95597626	      1.84841428	     14.07219747	      0.00000000	      0.00000000
      4.79000000	      8.40189837	    -22.75040175	      5.94636105	      0.00636265	      0.43320971	     -1.14927495	    127.48530411	    -49.43032092	     36.32815564	    112.80651428	      0.00000000	   -685.19331153	      1.96884509	     25.76574680	      0.00000000	      0.00000000	    115.50340495	    -33.41174557	     18.89672613	    106.09846160	      0.00000000	     -9.95607923	      1.85176749	     14.11800746	      0.00000000	      0.00000000
      4.79500000	      8.42095671	    -22.70771471	      5.88131667	      0.00657039	      0.43190897	     -1.14934204	    127.58928381	    -49.43018858	     36.47486721	    112.96071910	      0.00000000	   -685.16032444	      1.97153647	     25.82027801	      0.00000000	      0.00000000	    115.71410336	    -33.33521581	     19.12531120	    106.28407030	      0.00000000	     -9.95616996	      1.85500697	     14.15888673	      0.00000000	      0.00000000
      4.80000000	      8.43117615	    -22.65450613	      5.82138284	      0.00680092	      0.43065246	     -1.14940786	    127.67443546	    -49.42104821	     36.62495460	    113.10835366	      0.00000000	   -685.12265736	      1.97411318	     25.87993770	      0.00000000	      0.00000000	    115.90117373	    -33.28208860	     19.33779596	    106.46100527	      0.00000000	     -9.95625541	      1.85809507	     14.20383473	      0.00000000	      0.00000000
      4.80500000	      8.46241094	    -22.65027625	      5.76718082	      0.00692682	      0.42940061	     -1.14949118	    127.82584925	    -49.42481257	     36.78193780	    113.24978591	      0.00000000	   -685.07670318	      1.97658164	     25.91937655	      0.00000000	      0.00000000	    116.14764644	    -33.19966486	     19.55011235	    106.63588356	      0.00000000	     -9.95634485	      1.86114727	     14.20270642	      0.00000000	      0.00000000
      4.81000000	      8.47467559	    -22.59220955	      5.71655518	      0.00707945	      0.42825877	     -1.14955600	    127.90599129	    -49.41945796	     36.92012816	    113.38193703	      0.00000000	   -685.06245014	      1.97888811	     25.97020663	      0.00000000	      0.00000000	    116.30106751	    -33.14808888	     19.72739394	    106.79235946	      0.00000000	     -9.95645623	      1.86387829	     14.24199609	      0.00000000	      0.00000000
      4.81500000	      8.48875396	    -22.61907617	      5.66143937	      0.00718682	      0.42713896	     -1.14961934	    128.07370109	    -49.41203449	     37.05025188	    113.51204876	      0.00000000	   -685.01542669	      1.98115899	     26.01641102	      0.00000000	      0.00000000	    116.55982767	    -33.10106183	     19.92136408	    106.94455536	      0.00000000	     -9.95655085	      1.86653461	     14.24890848	      0.00000000	      0.00000000
      4.82000000	      8.48281377	    -22.56378380	      5.58529217	      0.00728201	      0.42608995	     -1.14967919	    128.10871570	    -49.41487537	     37.12447683	    113.62111280	      0.00000000	   -685.00060355	      1.98306252	     26.02171936	      0.00000000	      0.00000000	    116.73784932	    -33.06166727	     20.12446193	    107.09143916	      0.00000000	     -9.95665771	      1.86909821	     14.25059509	      0.00000000	      0.00000000
      4.82500000	      8.49450334	    -22.57570034	      5.55281637	      0.00738058	      0.42503503	     -1.14974738	    128.29084985	    -49.40602684	     37.27768497	    113.74514705	      0.00000000	   -684.95212153	      1.98522732	     26.06069292	      0.00000000	      0.00000000	    116.95538315	    -33.04478330	     20.27373356	    107.23192312	      0.00000000	     -9.95675519	      1.87155012	     14.26367628	      0.00000000	      0.00000000
      4.83000000	      8.50323775	    -22.61399532	      5.51740746	      0.00740473	      0.42408216	     -1.14982054	    128.46474259	    -49.38849708	     37.40042292	    113.84948681	      0.00000000	   -684.91338670	      1.98704840	     26.08649244	      0.00000000	      0.00000000	    117.19144648	    -33.02293770	     20.41946611	    107.36077054	      0.00000000	     -9.95684880	      1.87379893	     14.25387493	      0.00000000	      0.00000000
      4.83500000	      8.49921843	    -22.57817769	      5.43432563	      0.00742871	      0.42315081	     -1.14989414	    128.51958604	    -49.41154508	     37.45762905	    113.94515885	      0.00000000	   -684.88009477	      1.98871819	     26.10068261	      0.00000000	      0.00000000	    117.38264739	    -32.98886296	     20.60972515	    107.48748857	      0.00000000	     -9.95694050	      1.87601058	     14.24860304	      0.00000000	      0.00000000
      4.84000000	      8.51081896	    -22.66587064	      5.42281893	      0.00741151	      0.42228909	     -1.14996578	    128.76230300	    -49.38375961	     37.59227980	    114.03719665	      0.00000000	   -684.85359424	      1.99032455	     26.10486381	      0.00000000	      0.00000000	    117.65068159	    -32.98896653	     20.71642442	    107.60217788	      0.00000000	     -9.95703185	      1.87801229	     14.21439865	      0.00000000	      0.00000000
      4.84500000	      8.51477460	    -22.65821803	      5.35389422	      0.00738219	      0.42146291	     -1.15003882	    128.85221293	    -49.40552731	     37.65381787	    114.12045753	      0.00000000	   -684.82218925	      1.99177773	     26.11564581	      0.00000000	      0.00000000	    117.84683525	    -32.95015912	     20.87787939	    107.71464715	      0.00000000	     -9.95710822	      1.87997525	     14.20603994	      0.00000000	      0.00000000
      4.85000000	      8.51629810	    -22.72488006	      5.33839355	      0.00733236	      0.42068963	     -1.15011031	    129.06031555	    -49.38008544	     37.76252163	    114.20070104	      0.00000000	   -684.79760523	      1.99317824	     26.10879457	      0.00000000	      0.00000000	    118.09133620	    -32.96760746	     20.97618786	    107.81836280	      0.00000000	     -9.95719134	      1.88178542	     14.16075476	      0.00000000	      0.00000000
      4.85500000	      8.53075567	    -22.78022218	      5.28220212	      0.00721729	      0.41998239	     -1.15018948	    129.20610935	    -49.39289960	     37.81837638	    114.26571604	      0.00000000	   -684.78205310	      1.99431297	     26.11411080	      0.00000000	      0.00000000	    118.33219683	    -32.92088479	     21.11474773	    107.91124907	      0.00000000	     -9.95723710	      1.88340660	     14.13411687	      0.00000000	      0.00000000
      4.86000000	      8.53632056	    -22.84460991	      5.24187274	      0.00712247	      0.41933723	     -1.15026916	    129.37295517	    -49.39598017	     37.87783572	    114.32691210	      0.00000000	   -684.75670889	      1.99538104	     26.10260099	      0.00000000	      0.00000000	    118.56268392	    -32.90116181	     21.22642686	    107.99957615	      0.00000000	     -9.95730060	      1.88494819	     14.09235415	      0.00000000	      0.00000000
      4.86500000	      8.54262312	    -22.90719263	      5.20992665	      0.00697695	      0.41873502	     -1.15035398	    129.52268518	    -49.38352886	     37.93661288	    114.37916184	      0.00000000	   -684.76949774	      1.99629297	     26.09234497	      0.00000000	      0.00000000	    118.78739398	    -32.88832587	     21.32120657	    108.08094978	      0.00000000	     -9.95730604	      1.88636843	     14.05889981	      0.00000000	      0.00000000
      4.87000000	      8.55399823	    -22.96544091	      5.17877720	      0.00682342	      0.41818063	     -1.15044261	    129.67412373	    -49.38094185	     37.99471090	    114.42899979	      0.00000000	   -684.76261826	      1.99716281	     26.06973860	      0.00000000	      0.00000000	    118.99336905	    -32.85943783	     21.40846319	    108.15685589	      0.00000000	     -9.95732332	      1.88769324	     14.01376612	      0.00000000	      0.00000000
      4.87500000	      8.56737019	    -23.08275906	      5.15025672	      0.00661126	      0.41765838	     -1.15053185	    129.87919157	    -49.36054321	     38.04782256	    114.47333321	      0.00000000	   -684.76494284	      1.99793657	     26.04042166	      0.00000000	      0.00000000	    119.26260221	    -32.82152743	     21.49948591	    108.22930276	      0.00000000	     -9.95732541	      1.88895768	     13.94245584	      0.00000000	      0.00000000
      4.88000000	      8.58294284	    -23.09740978	      5.10094023	      0.00640418	      0.41721797	     -1.15063671	    129.94573410	    -49.37741525	     38.06700578	    114.50115555	      0.00000000	   -684.79127050	      1.99842216	     26.01344157	      0.00000000	      0.00000000	    119.41313609	    -32.75972935	     21.58788631	    108.29274804	      0.00000000	     -9.95729758	      1.89006501	     13.90528638	      0.00000000	      0.00000000
      4.88500000	      8.61680496	    -23.20684684	      5.07757910	      0.00614332	      0.41684004	     -1.15073371	    130.12908573	    -49.37837588	     38.10707482	    114.52533456	      0.00000000	   -684.82292377	      1.99884417	     25.95559771	      0.00000000	      0.00000000	    119.64569647	    -32.68995235	     21.65117713	    108.34838551	      0.00000000	     -9.95725874	      1.89103607	     13.82881656	      0.00000000	      0.00000000
      4.89000000	      8.63891691	    -23.32015816	      5.07024901	      0.00588903	      0.41648745	     -1.15082959	    130.31721224	    -49.35248006	     38.15927637	    114.55291639	      0.00000000	   -684.85602777	      1.99932556	     25.94988445	      0.00000000	      0.00000000	    119.85801345	    -32.64642519	     21.69578186	    108.39505851	      0.00000000	     -9.95721992	      1.89185066	     13.79371865	      0.00000000	      0.00000000
      4.89500000	      8.66789677	    -23.35654543	      5.02013074	      0.00559911	      0.41619904	     -1.15094453	    130.38447431	    -49.37402570	     38.15585107	    114.56027485	      0.00000000	   -684.90417346	      1.99945399	     25.89310410	      0.00000000	      0.00000000	    120.00505661	    -32.54363164	     21.77441867	    108.43764820	      0.00000000	     -9.95713864	      1.89259399	     13.74799547	      0.00000000	      0.00000000
